<svg
    enable-background="new 0 0 60 60"
    height="33px"
    viewBox="0 0 60 60"
    stroke="rgb(51, 75, 73)"
    width="33px"
    xmlns="http://www.w3.org/2000/svg"><path
    d="m7 16h-6c-.552 0-1-.448-1-1v-14c0-.552.448-1 1-1h14c.552 0 1 .448 1 1v6c0 .552-.448 1-1 1h-7v7c0 .552-.448 1-1 1zm-5-2h4v-7c0-.552.448-1 1-1h7v-4h-12z"/><path
    d="m15 60h-14c-.552 0-1-.448-1-1v-14c0-.552.448-1 1-1h6c.552 0 1 .448 1 1v7h7c.552 0 1 .448 1 1v6c0 .552-.448 1-1 1zm-13-2h12v-4h-7c-.552 0-1-.448-1-1v-7h-4z"/><path
    d="m59 16h-6c-.552 0-1-.448-1-1v-7h-7c-.552 0-1-.448-1-1v-6c0-.552.448-1 1-1h14c.552 0 1 .448 1 1v14c0 .552-.448 1-1 1zm-5-2h4v-12h-12v4h7c.552 0 1 .448 1 1z"/><path
    d="m59 60h-14c-.552 0-1-.448-1-1v-6c0-.552.448-1 1-1h7v-7c0-.552.448-1 1-1h6c.552 0 1 .448 1 1v14c0 .552-.448 1-1 1zm-13-2h12v-12h-4v7c0 .552-.448 1-1 1h-7z"/><path
    d="m46 47h-32c-.552 0-1-.448-1-1v-32c0-.552.448-1 1-1h32c.552 0 1 .448 1 1v32c0 .552-.448 1-1 1zm-31-2h30v-30h-30z"/><path
    d="m59 31h-58c-.552 0-1-.448-1-1s.448-1 1-1h58c.552 0 1 .448 1 1s-.448 1-1 1z"/></svg>